<svg xmlns="http://www.w3.org/2000/svg" viewBox="0 0 1200 760"><defs><linearGradient id="sky" y2="1"><stop stop-color="#071116"/><stop offset=".55" stop-color="#173536"/><stop offset="1" stop-color="#05090a"/></linearGradient><radialGradient id="sun"><stop stop-color="#d8ffdf"/><stop offset="1" stop-color="#4ade80" stop-opacity="0"/></radialGradient><filter id="b"><feGaussianBlur stdDeviation="28"/></filter></defs><rect width="1200" height="760" fill="url(#sky)"/><ellipse cx="650" cy="270" rx="300" ry="180" fill="url(#sun)" opacity=".25" filter="url(#b)"/><path d="M110 490c180-120 340-90 480 15 145 108 350 75 500-10l-80 150c-170 75-430 60-610-20-160-72-270-40-390 10z" fill="#1d4037"/><path d="M0 560c210-60 360-35 520 40 170 80 360 70 680-30v190H0z" fill="#06100d"/><g stroke="#65d98f" stroke-opacity=".55" stroke-width="3"><path d="M180 590 340 520 510 565 690 430 860 495 1030 380"/><path d="M340 520v100M690 430v140M1030 380v180"/></g><g fill="#a7f3d0"><circle cx="340" cy="520" r="7"/><circle cx="690" cy="430" r="7"/><circle cx="1030" cy="380" r="7"/></g></svg>